<svg xmlns="http://www.w3.org/2000/svg" xmlns:xlink="http://www.w3.org/1999/xlink" width="2000" zoomAndPan="magnify" viewBox="0 0 1500 1499.999933" height="2000" preserveAspectRatio="xMidYMid meet" version="1.0"><defs><clipPath id="9bfd81ec0a"><path d="M 55.203125 24.363281 L 692 24.363281 L 692 1475.613281 L 55.203125 1475.613281 Z M 55.203125 24.363281 " clip-rule="nonzero"/></clipPath><clipPath id="c14fa75df6"><path d="M 801 25 L 1444.953125 25 L 1444.953125 1475 L 801 1475 Z M 801 25 " clip-rule="nonzero"/></clipPath></defs><g clip-path="url(#9bfd81ec0a)"><path fill="#e85d04" d="M 691.585938 24.46875 L 691.585938 1475.414062 C 631.648438 1471.304688 573.71875 1459.945312 518.664062 1442.195312 C 302.117188 1372.386719 129.925781 1203.800781 55.175781 989.515625 L 227.710938 933.148438 C 277.722656 1073.582031 383.636719 1187.488281 518.664062 1248.105469 L 518.664062 251.769531 C 469.683594 273.753906 424.546875 302.765625 384.507812 337.5 L 266.074219 200.089844 C 339.007812 136.902344 424.660156 87.972656 518.664062 57.679688 C 573.71875 39.9375 631.648438 28.578125 691.585938 24.46875 Z M 691.585938 24.46875 " fill-opacity="1" fill-rule="nonzero"/></g><g clip-path="url(#c14fa75df6)"><path fill="#e85d04" d="M 1444.8125 937.144531 C 1428.523438 998.480469 1404.417969 1056.636719 1373.605469 1110.46875 C 1339.542969 1170.050781 1297.28125 1224.339844 1248.351562 1271.820312 L 1125.003906 1138.710938 C 1172.28125 1092.152344 1211.097656 1037.007812 1238.960938 975.824219 L 1126.464844 863.328125 L 974.785156 1014.996094 L 974.785156 1439.042969 C 919.804688 1457.613281 861.859375 1469.792969 801.863281 1474.683594 L 801.863281 943.382812 L 974.785156 770.460938 L 1004.1875 741.046875 L 801.863281 538.726562 L 801.863281 25.1875 C 861.859375 30.082031 919.804688 42.257812 974.785156 60.828125 L 974.785156 467.101562 L 1126.464844 618.78125 L 1233.273438 511.972656 C 1205.777344 455.300781 1168.773438 404.117188 1124.320312 360.480469 L 1247.648438 227.386719 C 1293.777344 272.015625 1334.007812 322.710938 1367.050781 378.183594 C 1398.59375 431.082031 1423.609375 488.332031 1440.96875 548.8125 L 1248.730469 741.046875 L 1286.96875 779.300781 Z M 1444.8125 937.144531 " fill-opacity="1" fill-rule="nonzero"/></g></svg>